<svg width="97" height="98" viewBox="0 0 97 98" fill="none" xmlns="http://www.w3.org/2000/svg">
<path fill-rule="evenodd" clip-rule="evenodd" d="M67.666 39.791C67.666 55.3456 55.0565 67.9551 39.502 67.9551C23.9474 67.9551 11.3379 55.3456 11.3379 39.791C11.3379 24.2364 23.9474 11.627 39.502 11.627C55.0565 11.627 67.666 24.2364 67.666 39.791ZM62.1044 68.0834C55.9096 73.0388 48.0518 76.002 39.502 76.002C19.5032 76.002 3.29102 59.7898 3.29102 39.791C3.29102 19.7923 19.5032 3.58008 39.502 3.58008C59.5007 3.58008 75.7129 19.7923 75.7129 39.791C75.7129 48.3409 72.7497 56.1987 67.7944 62.3934L92.6399 87.239C94.2112 88.8102 94.2112 91.3577 92.6399 92.929C91.0687 94.5002 88.5212 94.5002 86.9499 92.929L62.1044 68.0834Z" fill="#627D98"/>
</svg>
