<?xml version="1.0" standalone="no"?>
<!DOCTYPE svg PUBLIC "-//W3C//DTD SVG 20010904//EN"
 "http://www.w3.org/TR/2001/REC-SVG-20010904/DTD/svg10.dtd">
<svg version="1.0" xmlns="http://www.w3.org/2000/svg"
 width="700.000000pt" height="700.000000pt" viewBox="0 0 700.000000 700.000000"
 preserveAspectRatio="xMidYMid meet">
<metadata>
Created by potrace 1.14, written by Peter Selinger 2001-2017
</metadata>
<g transform="translate(0.000000,700.000000) scale(0.100000,-0.100000)"
fill="#000000" stroke="none">
<path d="M3289 6796 c-2 -2 -42 -6 -89 -10 -47 -4 -96 -8 -110 -10 -14 -3 -74
-12 -135 -21 -357 -55 -782 -207 -1111 -400 -334 -195 -658 -469 -880 -744
-10 -13 -24 -28 -30 -35 -33 -35 -142 -187 -210 -291 -201 -310 -385 -750
-450 -1080 -2 -11 -8 -42 -14 -70 -9 -46 -12 -64 -24 -142 -7 -39 -15 -113
-26 -223 -9 -96 -6 -516 5 -600 3 -25 10 -81 16 -125 32 -248 118 -565 225
-825 10 -25 57 -122 105 -217 97 -193 232 -402 369 -573 112 -140 359 -388
495 -497 515 -413 1141 -666 1784 -721 110 -9 492 -9 593 1 105 9 287 36 298
42 3 2 26 6 50 10 76 11 299 71 420 113 162 56 295 113 445 191 113 58 340
193 355 210 3 4 30 23 60 44 30 20 67 47 82 59 15 13 66 55 113 93 119 98 345
329 449 460 305 385 512 803 631 1275 13 52 26 109 29 125 2 17 9 53 15 82 6
29 13 71 16 95 3 24 7 61 10 83 15 121 19 200 20 390 0 189 -9 397 -19 414 -2
3 -7 35 -10 71 -4 36 -9 74 -11 85 -3 11 -7 31 -9 45 -99 557 -371 1121 -754
1565 -56 65 -232 243 -300 303 -324 287 -727 521 -1126 656 -206 70 -484 133
-661 151 -33 4 -71 9 -85 12 -30 6 -525 15 -531 9z m463 -110 c335 -30 731
-125 966 -232 29 -13 55 -24 58 -24 2 0 53 -23 112 -52 841 -410 1461 -1159
1701 -2058 26 -98 68 -309 77 -385 3 -33 8 -69 10 -80 22 -110 21 -593 0 -715
-3 -14 -7 -47 -10 -74 -27 -237 -123 -578 -239 -846 -318 -735 -927 -1339
-1674 -1659 -180 -77 -397 -146 -588 -187 -268 -58 -574 -79 -885 -61 -63 4
-126 9 -139 12 -13 2 -48 7 -77 10 -29 2 -99 14 -156 25 -56 12 -114 23 -128
26 -126 25 -426 125 -563 188 -39 18 -97 45 -128 59 -80 37 -260 141 -349 200
-547 366 -967 881 -1203 1473 -47 119 -117 324 -132 389 -23 101 -64 314 -70
361 -4 33 -8 73 -11 89 -23 169 -22 527 2 725 10 84 27 190 41 255 8 39 17 81
19 95 11 57 75 273 109 365 387 1071 1313 1853 2435 2059 78 14 105 18 210 31
19 2 76 7 125 11 50 3 91 7 92 8 5 4 329 -2 395 -8z"/>
<path d="M3447 6644 c-1 -1 -58 -4 -127 -8 -69 -3 -135 -8 -148 -11 -13 -2
-53 -7 -89 -10 -37 -3 -69 -8 -72 -9 -3 -2 -28 -7 -56 -10 -27 -4 -114 -22
-193 -41 -567 -137 -1078 -425 -1492 -844 -135 -136 -168 -173 -265 -301 -229
-303 -380 -593 -500 -956 -28 -85 -90 -334 -100 -399 -3 -23 -7 -52 -10 -65
-2 -13 -7 -46 -10 -74 -3 -28 -8 -64 -10 -81 -15 -104 -21 -425 -10 -560 32
-398 127 -764 289 -1109 87 -186 259 -468 363 -595 214 -262 427 -465 668
-637 239 -170 526 -316 814 -413 109 -37 310 -91 396 -106 184 -32 227 -37
380 -50 92 -8 363 -8 445 0 36 3 85 7 110 10 25 2 63 6 85 10 22 3 56 8 75 11
112 15 351 72 475 112 400 132 765 336 1076 602 88 75 283 271 350 350 30 36
56 67 59 70 48 47 247 346 301 451 18 35 42 78 53 94 12 17 19 30 18 30 -2 0
13 36 33 80 143 313 237 652 270 980 14 140 16 182 16 330 0 152 -3 200 -17
340 -61 615 -327 1233 -737 1710 -76 88 -251 263 -342 342 -295 255 -680 473
-1050 595 -129 42 -368 103 -450 114 -27 3 -52 8 -55 9 -3 2 -34 6 -69 10 -34
4 -71 8 -82 10 -36 7 -386 24 -392 19z m293 -168 c435 -31 918 -187 1304 -421
257 -156 530 -386 706 -595 30 -36 57 -67 61 -70 40 -35 227 -312 302 -448
146 -265 272 -606 312 -842 3 -19 8 -42 10 -50 26 -96 49 -361 49 -560 -2
-791 -313 -1540 -874 -2100 -419 -418 -963 -709 -1530 -819 -56 -11 -64 -12
-180 -30 -192 -30 -522 -33 -760 -5 -194 22 -552 108 -675 163 -11 5 -36 15
-55 22 -82 29 -281 125 -379 181 -727 419 -1234 1088 -1431 1890 -29 120 -31
129 -56 288 -35 233 -37 582 -4 805 5 33 12 80 15 105 44 313 199 736 380
1038 242 402 589 756 990 1009 308 194 742 358 1080 407 23 4 52 9 65 11 14 3
57 8 95 11 39 4 99 9 135 13 83 8 304 6 440 -3z"/>
<path d="M3368 6435 c-2 -2 -52 -6 -111 -9 -59 -4 -113 -9 -120 -11 -7 -2 -32
-6 -57 -9 -72 -9 -160 -26 -229 -42 -36 -9 -74 -18 -85 -20 -58 -11 -246 -73
-361 -119 -363 -146 -685 -357 -960 -630 -122 -121 -182 -186 -235 -255 -19
-25 -40 -50 -46 -57 -6 -7 -47 -65 -91 -130 -186 -276 -295 -508 -402 -858
-13 -44 -49 -203 -56 -250 -4 -22 -8 -47 -10 -55 -2 -8 -7 -37 -11 -65 -3 -27
-8 -59 -10 -70 -17 -90 -23 -432 -10 -595 47 -598 283 -1177 669 -1640 106
-127 318 -336 417 -410 18 -14 49 -38 69 -54 129 -103 387 -256 567 -335 242
-108 541 -195 771 -226 21 -2 54 -7 73 -10 133 -19 442 -25 605 -11 553 45
1079 247 1532 588 128 97 165 129 313 278 373 375 634 840 758 1350 34 138 50
219 58 295 3 28 7 56 10 64 22 68 22 567 0 701 -3 14 -7 48 -11 75 -9 72 -43
243 -65 325 -264 1000 -1038 1789 -2035 2074 -109 31 -221 56 -315 71 -19 3
-42 8 -50 10 -8 2 -41 6 -72 9 -32 3 -84 9 -115 12 -55 6 -380 13 -385 9z
m432 -58 c14 -3 48 -8 75 -11 49 -6 76 -10 145 -22 72 -12 87 -16 165 -35 542
-135 1040 -424 1409 -818 22 -24 50 -53 61 -65 50 -51 166 -199 236 -301 86
-123 250 -427 274 -505 4 -14 11 -29 15 -35 12 -15 97 -273 115 -347 29 -118
31 -126 51 -238 34 -193 38 -245 39 -490 0 -241 -5 -308 -35 -493 -163 -984
-844 -1828 -1777 -2201 -158 -63 -381 -129 -513 -152 -14 -3 -32 -7 -40 -9 -8
-2 -42 -7 -75 -11 -33 -3 -62 -8 -65 -9 -31 -19 -526 -27 -670 -12 -490 52
-950 222 -1357 503 -50 35 -100 70 -110 78 -163 131 -207 172 -328 296 -402
416 -674 956 -765 1520 -7 41 -14 84 -16 95 -26 138 -25 621 1 775 2 14 6 41
9 60 73 490 305 1004 631 1395 486 583 1206 966 1940 1031 39 3 72 8 74 10 6
6 479 -3 511 -9z"/>
<path d="M3305 6339 c-169 -16 -197 -19 -276 -33 -135 -24 -149 -27 -259 -57
-154 -41 -217 -63 -365 -124 -134 -56 -165 -71 -305 -148 -412 -226 -816 -626
-1061 -1047 -136 -236 -268 -567 -313 -790 -3 -14 -7 -35 -10 -46 -2 -12 -7
-37 -10 -55 -3 -19 -7 -43 -10 -54 -3 -17 -13 -86 -21 -145 -23 -170 -23 -558
-1 -677 2 -10 8 -46 12 -78 4 -33 8 -62 9 -65 1 -3 5 -25 9 -50 50 -290 191
-660 354 -930 155 -257 383 -528 592 -701 35 -30 70 -59 76 -65 7 -6 57 -43
111 -81 550 -395 1195 -577 1873 -529 58 4 120 9 138 12 17 2 44 6 60 8 15 2
54 8 87 14 33 6 74 14 90 17 28 5 137 33 265 69 30 8 113 38 183 66 381 149
693 354 982 645 121 122 156 160 199 220 16 22 35 46 42 53 52 52 211 306 289
462 88 175 182 426 215 575 7 28 14 59 16 70 3 11 7 31 10 45 2 14 9 48 14 75
29 147 44 316 44 495 0 127 -10 327 -19 360 -2 8 -6 35 -9 60 -3 25 -8 56 -11
70 -3 14 -8 41 -11 60 -11 61 -62 262 -87 340 -64 196 -181 447 -299 635 -34
55 -65 102 -68 105 -3 3 -17 21 -30 40 -13 19 -49 66 -79 105 -347 435 -806
758 -1326 933 -98 33 -186 58 -225 65 -14 3 -43 10 -65 16 -34 9 -143 27 -265
45 -132 19 -416 26 -545 15z m442 -53 c26 -3 73 -8 103 -11 125 -14 309 -54
465 -100 157 -46 299 -106 545 -230 41 -21 311 -197 331 -217 8 -7 46 -38 84
-69 347 -277 653 -699 828 -1139 75 -186 142 -440 162 -610 3 -25 8 -56 11
-70 9 -49 18 -217 18 -340 0 -118 -12 -338 -19 -350 -1 -3 -6 -27 -9 -55 -7
-48 -10 -69 -22 -137 -9 -56 -54 -229 -81 -313 -291 -904 -1032 -1606 -1953
-1849 -52 -14 -111 -28 -130 -31 -19 -3 -42 -8 -51 -11 -10 -2 -30 -6 -45 -9
-31 -4 -93 -14 -134 -21 -136 -22 -557 -23 -690 0 -14 2 -43 7 -65 10 -98 14
-127 19 -245 47 -250 59 -467 144 -720 282 -70 38 -327 209 -360 239 -14 13
-48 41 -75 63 -63 50 -257 243 -316 314 -24 29 -48 59 -54 65 -5 6 -31 38 -56
71 -224 293 -401 668 -488 1035 -29 119 -35 154 -47 245 -3 22 -8 51 -10 65
-22 124 -22 561 0 680 2 14 7 48 11 75 3 28 10 68 15 90 5 22 12 56 15 75 32
186 140 493 242 688 322 618 834 1082 1473 1336 181 71 450 143 603 161 25 3
56 8 68 10 13 3 69 8 124 11 55 4 101 7 102 8 5 4 324 -3 370 -8z"/>
<path d="M3407 6254 c-1 -1 -47 -4 -102 -8 -55 -3 -116 -8 -135 -11 -19 -3
-53 -7 -75 -10 -150 -19 -379 -78 -550 -141 -244 -90 -483 -220 -699 -382
-126 -95 -146 -112 -286 -252 -159 -158 -211 -219 -320 -375 -423 -605 -583
-1359 -445 -2100 5 -25 15 -69 40 -175 45 -190 162 -473 284 -687 143 -251
414 -566 646 -753 342 -277 817 -498 1215 -565 19 -3 42 -8 50 -10 8 -2 37 -7
65 -11 27 -3 61 -8 75 -10 151 -21 530 -21 650 0 14 3 48 7 75 11 252 31 583
134 829 257 360 180 635 401 925 743 121 144 298 438 386 644 79 185 160 468
185 646 6 44 13 91 15 105 22 131 22 514 0 660 -2 14 -6 47 -10 74 -21 169
-88 418 -162 606 -93 238 -254 514 -418 720 -93 118 -348 369 -438 432 -18 12
-39 29 -47 37 -44 43 -306 203 -445 271 -329 162 -637 246 -1007 276 -63 5
-297 11 -301 8z m328 -58 c307 -34 504 -81 760 -181 257 -99 535 -266 760
-454 72 -60 296 -293 358 -370 132 -168 217 -303 317 -506 114 -234 204 -510
236 -723 3 -20 9 -64 15 -97 27 -177 30 -556 5 -692 -2 -10 -7 -43 -11 -73 -4
-30 -9 -64 -11 -75 -3 -11 -7 -36 -10 -55 -3 -19 -17 -78 -30 -130 -100 -389
-274 -735 -528 -1050 -70 -87 -288 -308 -361 -366 -27 -21 -52 -42 -55 -45
-12 -15 -192 -140 -276 -191 -298 -184 -683 -322 -1010 -363 -27 -4 -56 -8
-64 -10 -66 -17 -387 -24 -541 -12 -568 44 -1094 262 -1544 637 -64 53 -262
253 -310 311 -27 34 -54 67 -60 73 -11 12 -63 83 -117 161 -253 368 -416 832
-454 1300 -14 166 -6 469 16 583 4 26 11 72 15 102 9 73 66 293 104 402 113
326 271 605 501 883 32 39 276 281 320 319 370 311 875 538 1339 602 25 3 57
8 71 10 14 2 63 7 110 10 47 4 86 7 87 8 6 5 316 -2 368 -8z"/>
<path d="M3309 6156 c-2 -2 -35 -6 -74 -10 -61 -6 -121 -14 -230 -32 -155 -25
-429 -111 -594 -186 -196 -89 -418 -226 -587 -361 -333 -269 -624 -662 -788
-1063 -42 -103 -118 -341 -131 -409 -27 -146 -47 -273 -53 -340 -9 -102 -8
-451 1 -530 4 -33 10 -80 13 -105 3 -25 17 -99 31 -165 106 -507 348 -957 718
-1329 143 -145 244 -227 425 -348 238 -158 535 -289 810 -357 126 -31 151 -36
225 -47 22 -3 51 -8 65 -10 82 -13 197 -19 360 -19 164 0 353 10 369 19 3 2
28 7 55 10 173 24 430 98 626 181 231 98 512 275 702 442 509 449 836 1088
896 1748 9 107 9 432 -1 525 -87 810 -518 1514 -1202 1962 -142 93 -375 210
-535 268 -107 39 -330 101 -410 114 -19 3 -44 7 -55 10 -11 2 -49 7 -85 11
-36 4 -74 10 -85 12 -23 6 -461 14 -466 9z m331 -1521 c241 -27 471 -140 656
-320 279 -274 399 -649 329 -1028 -61 -326 -289 -636 -585 -794 -53 -29 -175
-80 -209 -89 -9 -2 -43 -10 -76 -19 -445 -111 -947 91 -1206 485 -181 275
-237 640 -145 950 83 280 286 534 546 683 112 64 303 124 430 134 41 3 76 6
77 7 5 4 121 -2 183 -9z"/>
<path d="M3309 4504 c-345 -68 -646 -321 -765 -645 -44 -121 -56 -184 -59
-334 -6 -238 38 -395 165 -589 139 -212 345 -356 621 -432 91 -25 366 -26 459
-1 207 56 352 138 490 276 152 152 257 353 288 551 9 59 9 294 0 345 -37 205
-138 396 -287 546 -146 145 -312 234 -527 283 -77 17 -297 18 -385 0z m390
-149 c169 -44 292 -111 408 -222 258 -248 340 -626 208 -958 -89 -222 -275
-408 -495 -493 -108 -42 -188 -56 -330 -55 -116 0 -148 4 -225 27 -322 96
-548 335 -627 666 -16 69 -18 246 -3 330 31 173 114 335 235 460 81 82 128
118 230 172 58 31 214 81 280 91 62 9 260 -2 319 -18z"/>
<path d="M3485 3674 c-6 -1 -22 -5 -37 -8 -34 -8 -84 -50 -104 -89 -19 -35
-20 -116 -3 -149 33 -64 88 -99 158 -100 120 0 204 114 166 226 -14 40 -47 81
-80 99 -22 11 -85 25 -100 21z"/>
</g>
</svg>
