<?xml version="1.0" standalone="no"?>
<!DOCTYPE svg PUBLIC "-//W3C//DTD SVG 20010904//EN"
 "http://www.w3.org/TR/2001/REC-SVG-20010904/DTD/svg10.dtd">
<svg version="1.0" xmlns="http://www.w3.org/2000/svg"
 width="700.000000pt" height="700.000000pt" viewBox="0 0 700.000000 700.000000"
 preserveAspectRatio="xMidYMid meet">
<metadata>
Created by potrace 1.14, written by Peter Selinger 2001-2017
</metadata>
<g transform="translate(0.000000,700.000000) scale(0.100000,-0.100000)"
fill="#000000" stroke="none">
<path d="M3278 6996 c-1 -2 -39 -6 -83 -10 -777 -60 -1561 -419 -2130 -976
-115 -112 -305 -320 -305 -334 0 -2 33 -27 72 -56 40 -30 78 -57 84 -62 7 -5
38 23 87 79 427 497 985 854 1602 1027 92 25 242 60 305 71 19 3 46 7 60 10
14 3 48 7 75 11 28 3 59 8 70 10 53 10 228 18 385 18 158 0 386 -11 400 -19 3
-1 28 -6 55 -9 28 -4 75 -11 105 -16 30 -6 69 -13 85 -15 17 -3 84 -19 150
-36 1014 -251 1856 -981 2250 -1948 62 -154 143 -410 160 -510 3 -19 7 -37 9
-40 2 -3 7 -22 10 -41 3 -19 10 -59 15 -87 6 -29 13 -76 16 -105 3 -29 8 -60
10 -68 25 -94 25 -652 0 -781 -3 -13 -7 -43 -10 -66 -7 -63 -16 -114 -25 -158
-5 -22 -11 -54 -15 -72 -23 -135 -111 -415 -184 -588 -24 -55 -45 -105 -48
-112 -3 -7 31 -30 88 -58 72 -37 94 -44 100 -33 50 79 196 494 235 668 2 11 6
30 9 43 14 60 55 299 60 352 4 33 9 71 11 85 9 46 11 524 4 605 -12 128 -21
202 -25 227 -3 13 -8 43 -11 68 -3 25 -9 61 -14 80 -5 19 -12 51 -15 70 -9 53
-62 261 -75 295 -7 17 -14 39 -16 51 -14 77 -136 368 -226 543 -285 552 -713
1017 -1249 1356 -379 240 -897 436 -1299 490 -19 3 -46 7 -60 10 -13 2 -54 7
-90 11 -36 3 -76 8 -90 11 -27 5 -536 14 -542 9z"/>
<path d="M3378 6475 c-2 -1 -48 -5 -103 -9 -55 -3 -118 -8 -140 -11 -22 -3
-53 -8 -70 -10 -166 -22 -457 -95 -580 -145 -11 -4 -40 -16 -65 -25 -265 -104
-501 -237 -735 -414 -33 -25 -62 -48 -65 -51 -3 -3 -34 -30 -70 -60 -109 -93
-317 -307 -358 -369 -14 -20 -14 -24 -1 -31 8 -5 57 -42 109 -82 52 -40 220
-168 373 -283 153 -116 421 -317 594 -448 l315 -237 80 75 c175 164 388 272
633 320 71 14 286 17 366 6 269 -39 506 -157 695 -347 177 -178 285 -385 339
-649 14 -65 17 -274 6 -356 -10 -73 -37 -190 -66 -285 -6 -19 7 -29 127 -89
73 -37 237 -120 363 -185 127 -64 361 -184 520 -265 160 -81 349 -178 422
-216 l132 -67 26 56 c37 81 109 281 139 387 41 149 71 288 82 390 3 28 7 56
10 64 17 51 24 460 11 606 -11 111 -17 165 -22 195 -3 14 -10 54 -15 90 -55
336 -213 745 -410 1056 -394 621 -997 1075 -1694 1275 -60 17 -119 33 -130 35
-12 2 -55 11 -96 19 -126 26 -172 34 -240 41 -36 3 -74 8 -85 10 -23 5 -392
13 -397 9z"/>
<path d="M290 4898 c0 -2 -14 -37 -31 -78 -84 -205 -155 -444 -194 -655 -10
-49 -19 -99 -21 -110 -4 -20 -13 -86 -20 -140 -26 -230 -26 -667 1 -826 2 -13
6 -46 9 -74 27 -232 102 -521 207 -790 433 -1110 1424 -1937 2589 -2160 96
-18 123 -23 179 -31 25 -3 57 -8 71 -10 193 -30 696 -24 907 10 21 4 54 9 73
11 19 3 46 7 60 10 14 3 41 8 60 11 19 3 89 19 155 35 556 138 1065 405 1484
778 121 108 321 313 321 329 0 4 -36 35 -80 70 l-79 63 -35 -38 c-195 -217
-438 -422 -686 -580 -446 -283 -983 -463 -1495 -501 -183 -13 -541 -6 -655 13
-14 2 -45 7 -70 10 -75 9 -173 26 -205 35 -16 5 -43 11 -60 14 -246 44 -645
199 -915 356 -751 435 -1298 1143 -1530 1978 -16 59 -34 130 -39 157 -6 28
-13 61 -16 75 -12 59 -27 149 -40 252 -20 147 -26 498 -12 653 17 196 45 365
87 531 31 124 94 327 110 356 5 9 18 41 29 70 10 29 22 61 26 70 5 14 -11 26
-84 62 -84 43 -101 50 -101 44z"/>
<path d="M749 4643 c-71 -181 -133 -376 -153 -483 -2 -14 -9 -46 -15 -71 -6
-25 -13 -66 -16 -90 -3 -24 -7 -51 -10 -59 -2 -8 -7 -44 -10 -80 -4 -36 -9
-78 -12 -95 -9 -51 -10 -395 -1 -490 16 -192 35 -311 78 -488 29 -124 102
-348 141 -435 108 -240 195 -396 312 -562 231 -328 525 -606 865 -818 223
-140 565 -291 767 -338 6 -1 54 -14 108 -28 55 -14 115 -28 136 -31 20 -3 48
-8 61 -10 24 -5 86 -14 140 -20 196 -24 595 -25 716 -1 12 2 45 7 75 11 44 5
131 21 219 40 342 74 693 222 990 420 113 75 222 158 316 240 81 71 274 265
274 276 0 6 -108 94 -220 179 -18 14 -59 45 -90 70 -32 25 -74 59 -95 75 -21
17 -95 74 -164 128 -69 54 -133 103 -141 110 -43 34 -250 196 -285 222 -22 16
-42 32 -45 35 -7 8 -322 254 -337 264 -8 4 -39 -14 -80 -47 -244 -196 -492
-280 -803 -273 -133 3 -172 8 -273 34 -251 65 -476 210 -636 409 -125 155
-203 318 -245 514 -22 100 -25 133 -22 269 4 162 5 168 36 292 11 43 20 80 20
82 0 3 -24 16 -52 30 -29 13 -177 85 -328 159 -151 74 -345 168 -430 210 -85
41 -294 143 -464 226 -170 83 -311 151 -313 151 -2 0 -8 -12 -14 -27z"/>
<path d="M3425 3801 c-89 -23 -166 -86 -207 -169 -32 -67 -32 -197 1 -264 29
-61 89 -120 149 -150 67 -32 197 -32 263 0 237 117 236 451 -1 563 -49 23
-154 34 -205 20z"/>
</g>
</svg>
